<svg xmlns="http://www.w3.org/2000/svg" width="25.836" height="25.836" viewBox="0 0 25.836 25.836">
  <path id="Trazado_3" data-name="Trazado 3" d="M12.918,0h0a12.918,12.918,0,0,1,0,25.836h0A12.918,12.918,0,0,1,12.918,0h0ZM8.479,13.386h2.239A1.721,1.721,0,0,1,12.435,15.1v2.453a.837.837,0,0,1-.835.835H8.8a1.349,1.349,0,0,1-1.345-1.345V14.407a1.024,1.024,0,0,1,1.021-1.021Zm8.414-6.977H14.757A1.359,1.359,0,0,1,13.4,5.054V3.563a.955.955,0,0,1,.952-.952h1.077a2.247,2.247,0,0,1,2.241,2.241V5.63a.781.781,0,0,1-.779.779Zm2.946.5a1.483,1.483,0,0,1-1.019-1.4c0-.479-.029-1.1.721-.8.781.316,1.831,1.407,1.619,1.89S20.261,7.051,19.839,6.912Zm2.3,5.539H20.783a1.326,1.326,0,0,1-1.322-1.322V9.069a.968.968,0,0,1,.965-.965h.45a2.424,2.424,0,0,1,2.417,2.417V11.3a1.157,1.157,0,0,1-1.154,1.154Zm-4.782,0H15.118A1.721,1.721,0,0,1,13.4,10.734V8.281a.837.837,0,0,1,.835-.835h2.8a1.349,1.349,0,0,1,1.345,1.345V11.43a1.024,1.024,0,0,1-1.021,1.021Zm-.465,6.977H14.757A1.359,1.359,0,0,0,13.4,20.782v1.491a.955.955,0,0,0,.952.952h1.077a2.247,2.247,0,0,0,2.241-2.241v-.778a.781.781,0,0,0-.779-.779Zm2.946-.5a1.483,1.483,0,0,0-1.019,1.4c0,.479-.029,1.1.721.8.781-.316,1.831-1.407,1.619-1.89S20.261,18.786,19.839,18.925Zm2.3-5.539H20.783a1.326,1.326,0,0,0-1.322,1.322v2.059a.968.968,0,0,0,.965.965h.45a2.424,2.424,0,0,0,2.417-2.417V14.54a1.157,1.157,0,0,0-1.154-1.154Zm-4.782,0H15.118A1.721,1.721,0,0,0,13.4,15.1v2.453a.837.837,0,0,0,.835.835h2.8a1.349,1.349,0,0,0,1.345-1.345V14.407a1.024,1.024,0,0,0-1.021-1.021ZM8.944,6.409H11.08a1.359,1.359,0,0,0,1.355-1.355V3.563a.955.955,0,0,0-.952-.952H10.406A2.247,2.247,0,0,0,8.165,4.852V5.63a.781.781,0,0,0,.779.779ZM6,6.912a1.483,1.483,0,0,0,1.019-1.4c0-.479.029-1.1-.721-.8-.781.316-1.831,1.407-1.619,1.89S5.575,7.051,6,6.912ZM3.7,12.45H5.054a1.326,1.326,0,0,0,1.322-1.322V9.069A.968.968,0,0,0,5.41,8.1H4.96a2.424,2.424,0,0,0-2.417,2.417V11.3A1.157,1.157,0,0,0,3.7,12.45Zm4.782,0h2.239a1.721,1.721,0,0,0,1.716-1.716V8.281a.837.837,0,0,0-.835-.835H8.8A1.349,1.349,0,0,0,7.459,8.791V11.43A1.024,1.024,0,0,0,8.479,12.45Zm.465,6.977H11.08a1.359,1.359,0,0,1,1.355,1.355v1.491a.955.955,0,0,1-.952.952H10.406a2.247,2.247,0,0,1-2.241-2.241v-.778a.781.781,0,0,1,.779-.779ZM6,18.925a1.483,1.483,0,0,1,1.019,1.4c0,.479.029,1.1-.721.8-.781-.316-1.831-1.407-1.619-1.89S5.575,18.786,6,18.925ZM3.7,13.386H5.054a1.326,1.326,0,0,1,1.322,1.322v2.059a.968.968,0,0,1-.965.965H4.96a2.424,2.424,0,0,1-2.417-2.417V14.54A1.157,1.157,0,0,1,3.7,13.386ZM12.918,1.309a11.609,11.609,0,1,0,8.209,3.4,11.573,11.573,0,0,0-8.209-3.4Z" transform="translate(0)" fill="#1e1e1e"/>
</svg>
