<?xml version="1.0" encoding="UTF-8"?>
<!DOCTYPE svg PUBLIC "-//W3C//DTD SVG 1.1//EN" "http://www.w3.org/Graphics/SVG/1.1/DTD/svg11.dtd">
<!-- Creator: CorelDRAW 2021 (64-Bit) -->
<svg xmlns="http://www.w3.org/2000/svg" xml:space="preserve" width="63.4392mm" height="11.6784mm" version="1.1" style="shape-rendering:geometricPrecision; text-rendering:geometricPrecision; image-rendering:optimizeQuality; fill-rule:evenodd; clip-rule:evenodd"
viewBox="0 0 683.48 125.82"
 xmlns:xlink="http://www.w3.org/1999/xlink"
 xmlns:xodm="http://www.corel.com/coreldraw/odm/2003">
 <defs>
  <style type="text/css">
   <![CDATA[
    .fil0 {fill:#FDBD00;fill-rule:nonzero}
   ]]>
  </style>
 </defs>
 <g id="Capa_x0020_1">
  <metadata id="CorelCorpID_0Corel-Layer"/>
  <g id="_2908947799312">
   <path class="fil0" d="M62.91 0l0 0c17.37,0 33.1,7.04 44.48,18.43 11.38,11.38 18.43,27.11 18.43,44.48 0,17.37 -7.04,33.1 -18.43,44.48 -11.38,11.38 -27.11,18.43 -44.48,18.43l-0 0 0 0c-17.37,0 -33.1,-7.04 -44.48,-18.43 -11.38,-11.38 -18.43,-27.11 -18.43,-44.48 0,-17.37 7.04,-33.1 18.43,-44.48 11.38,-11.38 27.11,-18.43 44.48,-18.43l0 0zm0 6.38c-15.61,0 -29.75,6.33 -39.98,16.56 -10.23,10.23 -16.56,24.36 -16.56,39.98 0,15.61 6.33,29.75 16.56,39.98 10.23,10.23 24.36,16.56 39.98,16.56 15.61,0 29.75,-6.33 39.98,-16.56 10.23,-10.23 16.56,-24.36 16.56,-39.98 0,-15.61 -6.33,-29.75 -16.56,-39.98 -10.23,-10.23 -24.36,-16.56 -39.98,-16.56zm-21.62 58.81l10.91 0c4.6,0 8.36,3.76 8.36,8.36l0 11.95c0,2.24 -1.83,4.07 -4.07,4.07l-13.62 0c-3.6,0 -6.55,-2.95 -6.55,-6.55l0 -12.85c0,-2.73 2.24,-4.97 4.97,-4.97zm40.97 -33.98l-10.4 0c-3.63,0 -6.6,-2.97 -6.6,-6.6l0 -7.26c0,-2.55 2.09,-4.64 4.64,-4.64l5.24 0c6,0 10.91,4.91 10.91,10.91l0 3.79c0,2.09 -1.71,3.79 -3.79,3.79zm14.35 2.45c-2.87,-0.95 -4.96,-3.66 -4.96,-6.84 0,-2.33 -0.14,-5.36 3.51,-3.88 3.8,1.54 8.92,6.85 7.88,9.2 -1.02,2.32 -4.38,2.2 -6.43,1.52zm11.2 26.97l-6.61 0c-3.54,0 -6.44,-2.9 -6.44,-6.44l0 -10.03c0,-2.58 2.11,-4.7 4.7,-4.7l2.19 0c6.47,0 11.77,5.3 11.77,11.77l0 3.78c0,3.09 -2.53,5.62 -5.62,5.62zm-23.29 0l-10.91 0c-4.6,0 -8.36,-3.76 -8.36,-8.36l0 -11.95c0,-2.24 1.83,-4.07 4.07,-4.07l13.62 0c3.6,0 6.55,2.95 6.55,6.55l0 12.85c0,2.73 -2.24,4.97 -4.97,4.97zm-2.26 33.98l-10.4 0c-3.63,0 -6.6,2.97 -6.6,6.6l0 7.26c0,2.55 2.09,4.64 4.64,4.64l5.24 0c6,0 10.91,-4.91 10.91,-10.91l0 -3.79c0,-2.09 -1.71,-3.79 -3.79,-3.79zm14.35 -2.45c-2.87,0.94 -4.96,3.66 -4.96,6.84 0,2.33 -0.14,5.36 3.51,3.88 3.8,-1.54 8.92,-6.85 7.88,-9.2 -1.02,-2.32 -4.38,-2.2 -6.43,-1.52zm11.2 -26.97l-6.61 0c-3.54,0 -6.44,2.9 -6.44,6.44l0 10.03c0,2.59 2.11,4.7 4.7,4.7l2.19 0c6.47,0 11.77,-5.3 11.77,-11.77l0 -3.78c0,-3.09 -2.53,-5.62 -5.62,-5.62zm-23.29 0l-10.91 0c-4.6,0 -8.36,3.76 -8.36,8.36l0 11.95c0,2.24 1.83,4.07 4.07,4.07l13.62 0c3.6,0 6.55,-2.95 6.55,-6.55l0 -12.85c0,-2.73 -2.24,-4.97 -4.97,-4.97zm-40.97 -33.98l10.4 0c3.63,0 6.6,-2.97 6.6,-6.6l0 -7.26c0,-2.55 -2.09,-4.64 -4.64,-4.64l-5.25 0c-6,0 -10.91,4.91 -10.91,10.91l0 3.79c0,2.09 1.71,3.79 3.79,3.79zm-14.35 2.45c2.87,-0.95 4.96,-3.66 4.96,-6.84 0,-2.33 0.14,-5.36 -3.51,-3.88 -3.8,1.54 -8.92,6.85 -7.88,9.2 1.02,2.32 4.38,2.2 6.43,1.52zm-11.2 26.97l6.61 0c3.54,0 6.44,-2.9 6.44,-6.44l0 -10.03c0,-2.58 -2.11,-4.7 -4.7,-4.7l-2.19 0c-6.47,0 -11.77,5.3 -11.77,11.77l0 3.78c0,3.09 2.53,5.62 5.62,5.62zm23.29 0l10.91 0c4.6,0 8.36,-3.76 8.36,-8.36l0 -11.95c0,-2.24 -1.83,-4.07 -4.07,-4.07l-13.62 0c-3.6,0 -6.55,2.95 -6.55,6.55l0 12.85c0,2.73 2.24,4.97 4.97,4.97zm2.26 33.98l10.4 0c3.63,0 6.6,2.97 6.6,6.6l0 7.26c0,2.55 -2.09,4.64 -4.64,4.64l-5.25 0c-6,0 -10.91,-4.91 -10.91,-10.91l0 -3.79c0,-2.09 1.71,-3.79 3.79,-3.79zm-14.35 -2.45c2.87,0.94 4.96,3.66 4.96,6.84 0,2.33 0.14,5.36 -3.51,3.88 -3.8,-1.54 -8.92,-6.85 -7.88,-9.2 1.02,-2.32 4.38,-2.2 6.43,-1.52zm-11.2 -26.97l6.61 0c3.54,0 6.44,2.9 6.44,6.44l0 10.03c0,2.59 -2.11,4.7 -4.7,4.7l-2.19 0c-6.47,0 -11.77,-5.3 -11.77,-11.77l0 -3.78c0,-3.09 2.53,-5.62 5.62,-5.62z"/>
   <path class="fil0" d="M161.72 25.88l0 12.74 36.09 0c6.58,0 9.56,4.43 9.56,9.72 0,5.07 -2.78,10.04 -9.66,10.04l-24.98 0c-7.61,0 -10.9,3.35 -10.9,11.55l0 28.83 12.13 0 0 -26.35c0,-1.3 0.62,-1.84 1.75,-1.84l21.59 0c16.24,0 22.31,-11.88 22.31,-22.89 0,-11.66 -6.68,-21.81 -22.31,-21.81l-35.57 0zm111.24 15.55c0.66,-1.76 1.85,-2.49 3.5,-2.49 1.65,0 2.77,0.76 3.39,2.49l20.61 57.34 13.47 0 -22.97 -63.49c-2.46,-6.8 -7.2,-9.4 -14.39,-9.4 -7.3,0 -12.04,2.59 -14.6,9.4l-23.88 63.49 13.37 0 21.51 -57.34zm64.87 -15.55l0 12.74 38.04 0c6.68,0 9.67,4.43 9.67,9.61 0,5.18 -2.78,10.15 -9.67,10.15l-27.04 0c-7.61,0 -10.9,3.35 -10.9,11.55l0 28.83 12.13 0 0 -26.35c0,-1.3 0.62,-1.84 1.75,-1.84l18.09 0 15.83 28.19 13.47 0 -16.14 -29.15c10.59,-3.13 14.7,-12.85 14.7,-21.92 0,-11.66 -6.68,-21.81 -22.31,-21.81l-37.63 0zm79.16 0l0 12.74 20.25 0 0 60.15 12.23 0 0 -60.15 20.25 0 0 -12.74 -52.74 0zm77.52 0l0 72.89 12.13 0 0 -72.89 -12.13 0zm70.11 15.55c0.66,-1.76 1.85,-2.49 3.5,-2.49 1.65,0 2.77,0.76 3.39,2.49l20.61 57.34 13.47 0 -22.97 -63.49c-2.46,-6.8 -7.2,-9.4 -14.39,-9.4 -7.3,0 -12.04,2.59 -14.6,9.4l-23.88 63.49 13.37 0 21.51 -57.34zm90.06 -15.55c-18.4,0 -25.6,10.58 -25.6,25.16l0 47.73 12.13 0 0 -28.83 41.84 0 0 -12.09 -41.84 0 0 -6.91c0,-6.8 3.29,-12.31 14.29,-12.31l27.97 0 0 -12.74 -28.79 0z"/>
  </g>
 </g>
</svg>
